Coordinates
version=1
nRows=24
nColumns=24
inDegrees=yes

Units are S.I. units (second, meters, Newtons, ...)
Angles are in degrees.

endheader
time	pelvis_tilt	pelvis_list	pelvis_rotation	pelvis_tx	pelvis_ty	pelvis_tz	hip_flexion_r	hip_adduction_r	hip_rotation_r	knee_angle_r	ankle_angle_r	subtalar_angle_r	mtp_angle_r	hip_flexion_l	hip_adduction_l	hip_rotation_l	knee_angle_l	ankle_angle_l	subtalar_angle_l	mtp_angle_l	lumbar_extension	lumbar_bending	lumbar_rotation
      3.79000000	     62.92586599	     -0.28114773	     -0.47182712	      0.65378121	      1.01587861	     -0.21061568	     -0.93879039	     -5.96787263	      7.19609235	    -56.42709100	    -22.45596340	     17.01618967	     98.00506450	     -5.52792301	    -11.16073783	      1.50217625	    -56.89031407	    -12.11052018	     31.11526920	     23.94061599	      0.00000000	      0.00000000	      0.00000000
      3.80000000	     62.92309272	     -0.30705481	     -0.48055983	      0.65376350	      1.01578219	     -0.21064232	     -0.94914798	     -5.86711800	      6.99018223	    -56.16257323	    -22.48296176	     16.84886219	     98.13270725	     -5.41054677	    -11.20105639	      1.46196147	    -57.11729054	    -12.11778423	     31.09807675	     23.94869778	      0.00000000	      0.00000000	      0.00000000
      3.81000000	     62.92854439	     -0.30101111	     -0.51265796	      0.65378518	      1.01570112	     -0.21064006	     -0.98191989	     -5.78136927	      6.77269385	    -55.84791876	    -22.49007588	     16.75202000	     98.21789657	     -5.40503234	    -11.19807530	      1.43563737	    -57.14495271	    -12.13483940	     31.12672488	     24.04140759	      0.00000000	      0.00000000	      0.00000000
      3.82000000	     62.94198036	     -0.26528464	     -0.55579834	      0.65383866	      1.01564718	     -0.21063749	     -1.03490205	     -5.71939481	      6.57064013	    -55.51021837	    -22.47272105	     16.76367365	     98.24762642	     -5.52002092	    -11.15288160	      1.42909768	    -56.95652307	    -12.16128580	     31.20232141	     24.21341543	      0.00000000	      0.00000000	      0.00000000
      3.83000000	     62.95958645	     -0.21131481	     -0.58794212	      0.65382870	      1.01577875	     -0.21062051	     -1.09664255	     -5.69283923	      6.41420888	    -55.18140589	    -22.42623026	     16.91287986	     98.21356547	     -5.74669476	    -11.07859181	      1.44700810	    -56.57303221	    -12.19426994	     31.31690184	     24.44268049	      0.00000000	      0.00000000	      0.00000000
      3.84000000	     62.97533292	     -0.14942305	     -0.59332684	      0.65367661	      1.01613063	     -0.21057933	     -1.15188965	     -5.70291485	      6.31944810	    -54.88600852	    -22.34585252	     17.21391405	     98.11332891	     -6.05482955	    -10.99286812	      1.48906320	    -56.05461451	    -12.22896838	     31.45439476	     24.69379047	      0.00000000	      0.00000000	      0.00000000
      3.85000000	     62.98495801	     -0.08155459	     -0.57477614	      0.65344367	      1.01646451	     -0.21056717	     -1.18839115	     -5.73142251	      6.27670051	    -54.63316168	    -22.22731074	     17.66309372	     97.95090176	     -6.39142169	    -10.90997296	      1.54672378	    -55.49626552	    -12.25946591	     31.59309737	     24.92392808	      0.00000000	      0.00000000	      0.00000000
      3.86000000	     62.98940648	     -0.00848114	     -0.54891921	      0.65325288	      1.01659407	     -0.21060006	     -1.20022454	     -5.75003728	      6.25679551	    -54.41867390	    -22.06813200	     18.23888898	     97.73602137	     -6.68722872	    -10.83786406	      1.60374010	    -55.01308085	    -12.27975382	     31.70930281	     25.09038138	      0.00000000	      0.00000000	      0.00000000
      3.87000000	     62.99129267	      0.06073856	     -0.53235086	      0.65312735	      1.01653298	     -0.21064388	     -1.18826491	     -5.73808856	      6.22789998	    -54.23332031	    -21.86949055	     18.90483819	     97.48255567	     -6.87365018	    -10.78165114	      1.64161945	    -54.71432402	    -12.28465533	     31.78153348	     25.15824728	      0.00000000	      0.00000000	      0.00000000
      3.88000000	     62.99071664	      0.10842832	     -0.53243592	      0.65306203	      1.01639499	     -0.21068223	     -1.15740910	     -5.69255922	      6.16936561	    -54.06926540	    -21.63771061	     19.61414246	     97.20622245	     -6.90182312	    -10.74796334	      1.64731353	    -54.67289741	    -12.27065632	     31.79465484	     25.10696643	      0.00000000	      0.00000000	      0.00000000
      3.89000000	     62.98514631	      0.11525764	     -0.54566982	      0.65316479	      1.01635042	     -0.21068788	     -1.11093804	     -5.62607726	      6.07704628	    -53.92132436	    -21.38471369	     20.31495150	     96.92218820	     -6.75684303	    -10.74557251	      1.61900558	    -54.90201893	    -12.23668114	     31.74304175	     24.93457322	      0.00000000	      0.00000000	      0.00000000
      3.90000000	     62.96712583	      0.07170492	     -0.56094245	      0.65345779	      1.01639898	     -0.21064882	     -1.04685919	     -5.55561026	      5.96071589	    -53.78481590	    -21.12729991	     20.95584431	     96.64308039	     -6.46661340	    -10.78283030	      1.56733721	    -55.35016608	    -12.18478184	     31.63206829	     24.65898489	      0.00000000	      0.00000000	      0.00000000
      3.91000000	     62.92744396	     -0.01375869	     -0.56602229	      0.65374785	      1.01632260	     -0.21057945	     -0.96047428	     -5.48770133	      5.83676815	    -53.65323826	    -20.88550022	     21.49133133	     96.37780399	     -6.09455599	    -10.86093049	      1.51040700	    -55.91779896	    -12.12053598	     31.47752695	     24.31617423	      0.00000000	      0.00000000	      0.00000000
      3.92000000	     62.86699018	     -0.11542046	     -0.55510226	      0.65388744	      1.01603773	     -0.21050476	     -0.85208438	     -5.40970117	      5.72016845	    -53.51788162	    -20.68026670	     21.88711777	     96.13132351	     -5.71478970	    -10.96667491	      1.46468001	    -56.48874981	    -12.05274317	     31.30306561	     23.95557890	      0.00000000	      0.00000000	      0.00000000
      3.93000000	     62.80063904	     -0.20015302	     -0.53231556	      0.65392119	      1.01571765	     -0.21052532	     -0.73415372	     -5.29823438	      5.61970936	    -53.36971187	    -20.53072590	     22.12443092	     95.90530829	     -5.39019027	    -11.07432079	      1.43816156	    -56.96188689	    -11.99218649	     31.13622008	     23.63347195	      0.00000000	      0.00000000	      0.00000000
      3.94000000	     62.74768228	     -0.24639664	     -0.50798851	      0.65393750	      1.01552960	     -0.21067528	     -0.63211097	     -5.14535589	      5.53859993	    -53.20231614	    -20.45134305	     22.20234130	     95.69931786	     -5.16501385	    -11.15695614	      1.42982191	    -57.26970505	    -11.94974114	     31.00393947	     23.40523594	      0.00000000	      0.00000000	      0.00000000
      3.95000000	     62.72148879	     -0.25575020	     -0.49200778	      0.65394168	      1.01547645	     -0.21077269	     -0.57559372	     -4.97586991	      5.47703695	    -53.01325042	    -20.44958444	     22.13714694	     95.51208931	     -5.06681870	    -11.19772275	      1.43381522	    -57.37945615	    -11.93442053	     30.92851589	     23.31764067	      0.00000000	      0.00000000	      0.00000000
      3.96000000	     62.72741886	     -0.24126208	     -0.49022605	      0.65391009	      1.01552767	     -0.21068060	     -0.58351950	     -4.83280272	      5.43268155	    -52.80236609	    -20.52477805	     21.95864864	     95.34250729	     -5.11012614	    -11.19307975	      1.44447168	    -57.28304442	    -11.95190831	     30.92456399	     23.40230351	      0.00000000	      0.00000000	      0.00000000
      3.97000000	     62.76436600	     -0.21033617	     -0.50326697	      0.65386920	      1.01571573	     -0.21048888	     -0.65415097	     -4.74992212	      5.40074150	    -52.56996043	    -20.66852802	     21.70419433	     95.19002180	     -5.29821839	    -11.14884410	      1.45909628	    -56.98683871	    -12.00388210	     30.99730059	     23.67139005	      0.00000000	      0.00000000	      0.00000000
      3.98000000	     62.82455598	     -0.16157926	     -0.52652788	      0.65383583	      1.01603762	     -0.21034585	     -0.76770051	     -4.73770452	      5.37589969	    -52.31775673	    -20.86637915	     21.41211119	     95.05455565	     -5.62193241	    -11.07490415	      1.47794235	    -56.50929792	    -12.08812264	     31.14209961	     24.11624487	      0.00000000	      0.00000000	      0.00000000
      3.99000000	     62.89485593	     -0.09163551	     -0.55272290	      0.65373251	      1.01636533	     -0.21031971	     -0.89781265	     -4.78504352	      5.35472127	    -52.05157120	    -21.10012153	     21.11615128	     94.93611526	     -6.05554147	    -10.98230196	      1.50211352	    -55.88635661	    -12.19916971	     31.34527864	     24.70911105	      0.00000000	      0.00000000	      0.00000000
      4.00000000	     62.96305917	     -0.00276927	     -0.57620616	      0.65347060	      1.01655027	     -0.21040000	     -1.02344495	     -4.86838107	      5.33658480	    -51.78288742	    -21.35020962	     20.84196071	     94.83433443	     -6.55248422	    -10.88187890	      1.53063933	    -55.17745660	    -12.32920587	     31.58613266	     25.40753557	      0.00000000	      0.00000000	      0.00000000
      4.01000000	     63.02462303	      0.09416442	     -0.59565982	      0.65312676	      1.01662602	     -0.21051036	     -1.13452654	     -4.96160596	      5.32278859	    -51.52775881	    -21.59789532	     20.60577565	     94.74812798	     -7.04786002	    -10.78322051	      1.55860317	    -54.46326148	    -12.46892423	     31.84009695	     26.16057496	      0.00000000	      0.00000000	      0.00000000
      4.02000000	     63.08078428	      0.18361953	     -0.61263471	      0.65289457	      1.01676550	     -0.21055804	     -1.22942910	     -5.04386280	      5.31499703	    -51.30310378	    -21.82684599	     20.41494863	     94.67556655	     -7.47443246	    -10.69508851	      1.57838837	    -53.83084055	    -12.60835056	     32.08257009	     26.91561443	      0.00000000	      0.00000000	      0.00000000
